<?xml version="1.0" encoding="UTF-8" standalone="no"?>
<svg width="31px" height="25px" viewBox="0 0 31 25" version="1.1" xmlns="http://www.w3.org/2000/svg" xmlns:xlink="http://www.w3.org/1999/xlink" xmlns:sketch="http://www.bohemiancoding.com/sketch/ns">
    <!-- Generator: Sketch 3.3.2 (12043) - http://www.bohemiancoding.com/sketch -->
    <title>ic_snapshot</title>
    <desc>Created with Sketch.</desc>
    <defs>
        <filter x="-50%" y="-50%" width="200%" height="200%" filterUnits="objectBoundingBox" id="filter-1">
            <feOffset dx="0" dy="2" in="SourceAlpha" result="shadowOffsetOuter1"></feOffset>
            <feGaussianBlur stdDeviation="0" in="shadowOffsetOuter1" result="shadowBlurOuter1"></feGaussianBlur>
            <feColorMatrix values="0 0 0 0 0   0 0 0 0 0   0 0 0 0 0  0 0 0 0.35 0" in="shadowBlurOuter1" type="matrix" result="shadowMatrixOuter1"></feColorMatrix>
            <feMerge>
                <feMergeNode in="shadowMatrixOuter1"></feMergeNode>
                <feMergeNode in="SourceGraphic"></feMergeNode>
            </feMerge>
        </filter>
    </defs>
    <g id="--stylesheet" stroke="none" stroke-width="1" fill="none" fill-rule="evenodd" sketch:type="MSPage">
        <g id="Desktop" sketch:type="MSArtboardGroup" transform="translate(-187.000000, -86.000000)" filter="url(#filter-1)" fill="#FFFFFF" opacity="0.9" fill-opacity="0.980000019">
            <g id="ic_snapshot" sketch:type="MSLayerGroup" transform="translate(187.500000, 86.000000)">
                <path d="M27.8244444,4.3956044 L23.1183333,4.3956044 C22.5366667,4.3956044 22.2461111,4.06483516 22.2461111,4.06483516 L20.5188889,0.703846154 L20.5166667,0.71043956 C20.1105556,0.275824176 19.5344444,0 18.8888889,0 L11.1566667,0 C10.5122222,0 9.93611111,0.275824176 9.52888889,0.71043956 L9.52666667,0.703846154 L7.79944444,4.06483516 C7.79944444,4.06483516 7.50888889,4.3956044 6.92722222,4.3956044 L2.22222222,4.3956044 C0.993888889,4.3956044 0,5.37967033 0,6.59340659 L0,20.8791209 C0,22.0928571 0.993888889,23.0769231 2.22222222,23.0769231 L27.8244444,23.0769231 C29.0516667,23.0769231 30,22.0928571 30,20.8791209 L30,6.59340659 C30,5.37967033 29.0516667,4.3956044 27.8244444,4.3956044 Z M15,18.9013187 C11.5027778,18.9013187 8.66666667,16.0963736 8.66666667,12.6375824 C8.66666667,9.17879121 11.5027778,6.3732967 15,6.3732967 C18.4972222,6.3732967 21.3333333,9.17879121 21.3333333,12.6375824 C21.3333333,16.0963736 18.4972222,18.9013187 15,18.9013187 Z M15,7.69252747 C12.2383333,7.69252747 10,9.90626374 10,12.6375824 C10,15.3683516 12.2383333,17.5826374 15,17.5826374 C17.7616667,17.5826374 20,15.3683516 20,12.6375824 C20,9.90626374 17.7616667,7.69252747 15,7.69252747 Z M15,16.7035165 C12.73,16.7035165 10.8888889,14.8826374 10.8888889,12.6375824 C10.8888889,10.3925275 12.73,8.5710989 15,8.5710989 C17.27,8.5710989 19.1111111,10.3925275 19.1111111,12.6375824 C19.1111111,14.8826374 17.27,16.7035165 15,16.7035165 Z" id="Fill-3055" sketch:type="MSShapeGroup"></path>
            </g>
        </g>
    </g>
</svg>