<?xml version="1.0" encoding="UTF-8" standalone="no"?>
<svg width="27px" height="29px" viewBox="0 0 27 29" version="1.1" xmlns="http://www.w3.org/2000/svg" xmlns:xlink="http://www.w3.org/1999/xlink" xmlns:sketch="http://www.bohemiancoding.com/sketch/ns">
    <!-- Generator: Sketch 3.3.2 (12043) - http://www.bohemiancoding.com/sketch -->
    <title>ic_video</title>
    <desc>Created with Sketch.</desc>
    <defs>
        <filter x="-50%" y="-50%" width="200%" height="200%" filterUnits="objectBoundingBox" id="filter-1">
            <feOffset dx="0" dy="2" in="SourceAlpha" result="shadowOffsetOuter1"></feOffset>
            <feGaussianBlur stdDeviation="0" in="shadowOffsetOuter1" result="shadowBlurOuter1"></feGaussianBlur>
            <feColorMatrix values="0 0 0 0 0   0 0 0 0 0   0 0 0 0 0  0 0 0 0.35 0" in="shadowBlurOuter1" type="matrix" result="shadowMatrixOuter1"></feColorMatrix>
            <feMerge>
                <feMergeNode in="shadowMatrixOuter1"></feMergeNode>
                <feMergeNode in="SourceGraphic"></feMergeNode>
            </feMerge>
        </filter>
    </defs>
    <g id="--stylesheet" stroke="none" stroke-width="1" fill="none" fill-rule="evenodd" sketch:type="MSPage">
        <g id="Desktop" sketch:type="MSArtboardGroup" transform="translate(-135.000000, -85.000000)" filter="url(#filter-1)" fill="#FFFFFF" opacity="0.9" fill-opacity="0.980000019">
            <g id="ic_video" sketch:type="MSLayerGroup" transform="translate(135.000000, 85.500000)">
                <path d="M2.34782609,2.35636364 L0,2.35636364 L0,0 L2.34782609,0 L2.34782609,2.35636364 Z M27,25.92 L24.6521739,25.92 L24.6521739,23.5636364 L27,23.5636364 L27,25.92 Z M27,21.2072727 L24.6521739,21.2072727 L24.6521739,18.8509091 L27,18.8509091 L27,21.2072727 Z M27,16.4945455 L24.6521739,16.4945455 L24.6521739,14.1381818 L27,14.1381818 L27,16.4945455 Z M27,11.7818182 L24.6521739,11.7818182 L24.6521739,9.42545455 L27,9.42545455 L27,11.7818182 Z M27,7.06909091 L24.6521739,7.06909091 L24.6521739,4.71272727 L27,4.71272727 L27,7.06909091 Z M27,2.35636364 L24.6521739,2.35636364 L24.6521739,0 L27,0 L27,2.35636364 Z M2.34782609,25.92 L0,25.92 L0,23.5636364 L2.34782609,23.5636364 L2.34782609,25.92 Z M2.34782609,21.2072727 L0,21.2072727 L0,18.8509091 L2.34782609,18.8509091 L2.34782609,21.2072727 Z M2.34782609,16.4945455 L0,16.4945455 L0,14.1381818 L2.34782609,14.1381818 L2.34782609,16.4945455 Z M2.34782609,11.7818182 L0,11.7818182 L0,9.42545455 L2.34782609,9.42545455 L2.34782609,11.7818182 Z M2.34782609,7.06909091 L0,7.06909091 L0,4.71272727 L2.34782609,4.71272727 L2.34782609,7.06909091 Z M22.3043478,14.1381818 L4.69565217,14.1381818 L4.69565217,25.92 L22.3043478,25.92 L22.3043478,14.1381818 Z M22.3043478,0 L4.69565217,0 L4.69565217,11.7818182 L22.3043478,11.7818182 L22.3043478,0 Z" id="Fill-3179" sketch:type="MSShapeGroup"></path>
            </g>
        </g>
    </g>
</svg>