<?xml version="1.0" encoding="UTF-8" standalone="no"?>
<svg width="41px" height="42px" viewBox="0 0 41 42" version="1.1" xmlns="http://www.w3.org/2000/svg" xmlns:xlink="http://www.w3.org/1999/xlink" xmlns:sketch="http://www.bohemiancoding.com/sketch/ns">
    <!-- Generator: Sketch 3.3.2 (12043) - http://www.bohemiancoding.com/sketch -->
    <title>Review/ic_facebook</title>
    <desc>Created with Sketch.</desc>
    <defs>
        <filter x="-50%" y="-50%" width="200%" height="200%" filterUnits="objectBoundingBox" id="filter-1">
            <feOffset dx="0" dy="2" in="SourceAlpha" result="shadowOffsetOuter1"></feOffset>
            <feGaussianBlur stdDeviation="0" in="shadowOffsetOuter1" result="shadowBlurOuter1"></feGaussianBlur>
            <feColorMatrix values="0 0 0 0 0   0 0 0 0 0   0 0 0 0 0  0 0 0 0.217 0" in="shadowBlurOuter1" type="matrix" result="shadowMatrixOuter1"></feColorMatrix>
            <feMerge>
                <feMergeNode in="shadowMatrixOuter1"></feMergeNode>
                <feMergeNode in="SourceGraphic"></feMergeNode>
            </feMerge>
        </filter>
    </defs>
    <g id="--stylesheet" stroke="none" stroke-width="1" fill="none" fill-rule="evenodd" sketch:type="MSPage">
        <g id="Desktop" sketch:type="MSArtboardGroup" transform="translate(-400.000000, -237.000000)" filter="url(#filter-1)" fill="#FFFFFF" opacity="0.9" fill-opacity="0.980000019">
            <g id="Review/ic_facebook" sketch:type="MSLayerGroup" transform="translate(400.000000, 237.000000)">
                <path d="M20.4218568,0 C17.7031094,0 15.1562363,0.515624508 12.781239,1.54687352 C10.4062411,2.57812254 8.32811829,3.9843712 6.54686999,5.7656195 C4.76562169,7.5468678 3.35937303,9.62498987 2.32812402,11.9999886 C1.296875,14.3749858 0.781250492,16.9218589 0.781250492,19.6406063 C0.781250492,22.3593537 1.296875,24.9140387 2.32812402,27.3046615 C3.35937303,29.6952842 4.76562169,31.7812197 6.54686999,33.562468 C8.32811829,35.3437163 10.4062411,36.749965 12.781239,37.781214 C15.1562363,38.812463 17.7031094,39.3280875 20.4218568,39.3280875 C23.1406042,39.3280875 25.6952892,38.812463 28.085912,37.781214 C30.4765347,36.749965 32.5624702,35.3437163 34.3437185,33.562468 C36.1249668,31.7812197 37.5312154,29.6952842 38.5624645,27.3046615 C39.5937135,24.9140387 40.109338,22.3593537 40.109338,19.6406063 C40.109338,16.9218589 39.5937135,14.3749858 38.5624645,11.9999886 C37.5312154,9.62498987 36.1249668,7.5468678 34.3437185,5.7656195 C32.5624702,3.9843712 30.4765347,2.57812254 28.085912,1.54687352 C25.6952892,0.515624508 23.1406042,0 20.4218568,0 L20.4218568,0 Z M27.8280997,8.57811682 L27.8280997,13.4999871 L24.1249782,13.4999871 C23.9062289,13.4999871 23.6484167,13.6093625 23.3515415,13.8281118 C23.0546663,14.0468611 22.9062294,14.3437363 22.9062294,14.718736 L22.9062294,15.9843598 L26.5624759,15.9843598 L26.5624759,20.8593551 L22.9062294,20.8593551 L22.9062294,30.7030957 L17.9843591,30.7030957 L17.9843591,20.8593551 L14.2812376,20.8593551 L14.2812376,15.9843598 L17.9843591,15.9843598 L17.9843591,13.4999871 C17.9843591,12.9062425 18.124984,12.3124935 18.4062337,11.7187388 C18.6874834,11.1249899 19.0859205,10.5937399 19.601545,10.1249903 C20.1171696,9.65624079 20.718732,9.28124115 21.4062308,8.99999142 C22.0937297,8.71874169 22.843729,8.57811682 23.6562287,8.57811682 L27.8280997,8.57811682 Z" id="circlefacebook" sketch:type="MSShapeGroup"></path>
            </g>
        </g>
    </g>
</svg>