<?xml version="1.0" encoding="UTF-8" standalone="no"?>
<svg width="40px" height="42px" viewBox="0 0 40 42" version="1.1" xmlns="http://www.w3.org/2000/svg" xmlns:xlink="http://www.w3.org/1999/xlink" xmlns:sketch="http://www.bohemiancoding.com/sketch/ns">
    <!-- Generator: Sketch 3.3.2 (12043) - http://www.bohemiancoding.com/sketch -->
    <title>Review/ic_instagram</title>
    <desc>Created with Sketch.</desc>
    <defs>
        <filter x="-50%" y="-50%" width="200%" height="200%" filterUnits="objectBoundingBox" id="filter-1">
            <feOffset dx="0" dy="2" in="SourceAlpha" result="shadowOffsetOuter1"></feOffset>
            <feGaussianBlur stdDeviation="0" in="shadowOffsetOuter1" result="shadowBlurOuter1"></feGaussianBlur>
            <feColorMatrix values="0 0 0 0 0   0 0 0 0 0   0 0 0 0 0  0 0 0 0.217 0" in="shadowBlurOuter1" type="matrix" result="shadowMatrixOuter1"></feColorMatrix>
            <feMerge>
                <feMergeNode in="shadowMatrixOuter1"></feMergeNode>
                <feMergeNode in="SourceGraphic"></feMergeNode>
            </feMerge>
        </filter>
    </defs>
    <g id="--stylesheet" stroke="none" stroke-width="1" fill="none" fill-rule="evenodd" sketch:type="MSPage">
        <g id="Desktop" sketch:type="MSArtboardGroup" transform="translate(-339.000000, -237.000000)" filter="url(#filter-1)" fill="#FFFFFF" opacity="0.9" fill-opacity="0.980000019">
            <g id="Review/ic_instagram" sketch:type="MSLayerGroup" transform="translate(339.000000, 237.000000)">
                <path d="M19.6718567,23.9531022 C20.2656057,23.9531022 20.8202931,23.8437275 21.3359176,23.6249775 C21.8515421,23.4062274 22.3046662,23.1015402 22.6952913,22.7109158 C23.0859164,22.3203129 23.3906036,21.8593761 23.609353,21.3281047 C23.8281023,20.7968547 23.9374776,20.2343552 23.9374776,19.6406063 C23.9374776,18.4531069 23.5234151,17.4452954 22.6952913,16.6171717 C21.8671676,15.7890479 20.8593561,15.3749853 19.6718567,15.3749853 C19.0781078,15.3749853 18.5234203,15.4843607 18.0077958,15.70311 C17.4921713,15.9218593 17.0390472,16.2265465 16.6484221,16.6171717 C16.257797,17.0077968 15.9531098,17.4609208 15.7343605,17.9765454 C15.5156112,18.4921699 15.4062358,19.0468573 15.4062358,19.6406063 C15.4062358,20.2343552 15.5156112,20.7968547 15.7343605,21.3281047 C15.9531098,21.8593539 16.257797,22.3202915 16.6484221,22.7109158 C17.0390472,23.1015402 17.4921713,23.4062274 18.0077958,23.6249775 C18.5234203,23.8437275 19.0781078,23.9531022 19.6718567,23.9531022 L19.6718567,23.9531022 Z M26.5156002,19.6406063 C26.5156002,20.5781054 26.3359138,21.4687295 25.9765382,22.3124787 C25.6171626,23.1562279 25.132789,23.8906025 24.5234146,24.5156016 C23.9140402,25.1406008 23.1874784,25.6327878 22.3437292,25.9921627 C21.49998,26.3515376 20.6093558,26.5312247 19.6718567,26.5312247 C18.7343576,26.5312247 17.8437335,26.3515376 16.9999843,25.9921627 C16.1562351,25.6327878 15.4296733,25.1406008 14.8202988,24.5156016 C14.2109244,23.8906025 13.7265494,23.1562279 13.3671752,22.3124787 C13.007801,21.4687295 12.8281132,20.5781054 12.8281132,19.6406063 C12.8281132,19.3593565 12.8437387,19.0702948 12.8749882,18.7734196 C12.9062377,18.4765444 12.9531126,18.2031081 13.0156131,17.9531079 L11.0937399,17.9531079 L11.0937399,27.3749739 C11.0937399,27.6249627 11.1718651,27.8280873 11.3281147,27.9843483 C11.4843207,28.1405986 11.6874452,28.2187231 11.9374891,28.2187231 L27.4062243,28.2187231 C27.6557997,28.2187231 27.8589236,28.1405986 28.0155988,27.9843483 C28.1718477,27.828098 28.2499735,27.6249741 28.2499735,27.3749739 L28.2499735,17.9531079 L26.3281004,17.9531079 C26.3905994,18.2029908 26.4374743,18.4764285 26.4687252,18.7734196 C26.4999762,19.0702948 26.5156002,19.3593565 26.5156002,19.6406063 L26.5156002,19.6406063 Z M19.8593565,0 C17.1406091,0 14.5937361,0.515624508 12.2187388,1.54687352 C9.84374085,2.57812254 7.77343009,3.97655775 6.00780725,5.74218202 C4.24218441,7.50775766 2.84374848,9.57806914 1.81249875,11.9531136 C0.781249732,14.3281109 0.265625224,16.8749839 0.265625224,19.5937313 C0.265625224,22.3124787 0.781249732,24.8593511 1.81249875,27.234349 C2.84374776,29.609347 4.24218369,31.6874698 6.00780725,33.4687181 C7.7734308,35.2499664 9.84374085,36.656215 12.2187388,37.6874641 C14.5937361,38.7187131 17.1406091,39.2343376 19.8593565,39.2343376 C22.5781039,39.2343376 25.1249756,38.7187131 27.4999743,37.6874641 C29.8749729,36.656215 31.953095,35.2499664 33.7343433,33.4687181 C35.5155916,31.6874698 36.9218403,29.609347 37.9530893,27.234349 C38.9843383,24.8593511 39.4999628,22.3124787 39.4999628,19.5937313 C39.4999628,16.8749839 38.9843383,14.3281109 37.9530893,11.9531136 C36.9218403,9.57811491 35.5155916,7.50780629 33.7343433,5.74218202 C31.953095,3.97655775 29.8749729,2.57812254 27.4999743,1.54687352 C25.1249985,0.515624508 22.5781254,0 19.8593565,0 L19.8593565,0 Z M30.8280961,11.0624894 L30.8280961,28.2187231 C30.8280961,28.9374729 30.5780973,29.5468473 30.0780968,30.0468463 C29.5780963,30.5468454 28.9687219,30.7968456 28.2499735,30.7968456 L11.0937399,30.7968456 C10.3749908,30.7968485 9.7656164,30.5468483 9.26561664,30.0468463 C8.76561688,29.5468473 8.51561736,28.9374729 8.51561736,28.2187231 L8.51561736,11.0624894 C8.51561736,10.3437397 8.76561688,9.73436524 9.26561664,9.23436619 C9.7656164,8.73436572 10.3749908,8.48436691 11.0937399,8.48436691 L28.2499735,8.48436691 C28.9687219,8.48436691 29.5780963,8.73436572 30.0780968,9.23436619 C30.5780973,9.73436524 30.8280961,10.3437397 30.8280961,11.0624894 L30.8280961,11.0624894 Z M27.4062243,11.0624894 L24.8281018,11.0624894 C24.578103,11.0624894 24.3671657,11.1484273 24.1952899,11.3203017 C24.0241465,11.4921761 23.9382086,11.7031134 23.9374776,11.9531136 L23.9374776,14.5312361 C23.9374776,14.7810933 24.0234141,14.9842186 24.1952899,15.1406106 C24.3671657,15.2968609 24.578103,15.3749853 24.8281018,15.3749853 L27.4062243,15.3749853 C27.6557997,15.3749853 27.8589236,15.2968609 28.0155988,15.1406106 C28.1718477,14.9843602 28.2499735,14.7812364 28.2499735,14.5312361 L28.2499735,11.9531136 C28.2499735,11.7031134 28.1718477,11.4921761 28.0155988,11.3203017 C27.8593499,11.1484273 27.6562231,11.0624894 27.4062243,11.0624894 L27.4062243,11.0624894 Z" id="circleinstagram" sketch:type="MSShapeGroup"></path>
            </g>
        </g>
    </g>
</svg>