<?xml version="1.0" encoding="UTF-8" standalone="no"?>
<svg width="40px" height="42px" viewBox="0 0 40 42" version="1.1" xmlns="http://www.w3.org/2000/svg" xmlns:xlink="http://www.w3.org/1999/xlink" xmlns:sketch="http://www.bohemiancoding.com/sketch/ns">
    <!-- Generator: Sketch 3.3.2 (12043) - http://www.bohemiancoding.com/sketch -->
    <title>Review/ic_twitter</title>
    <desc>Created with Sketch.</desc>
    <defs>
        <filter x="-50%" y="-50%" width="200%" height="200%" filterUnits="objectBoundingBox" id="filter-1">
            <feOffset dx="0" dy="2" in="SourceAlpha" result="shadowOffsetOuter1"></feOffset>
            <feGaussianBlur stdDeviation="0" in="shadowOffsetOuter1" result="shadowBlurOuter1"></feGaussianBlur>
            <feColorMatrix values="0 0 0 0 0   0 0 0 0 0   0 0 0 0 0  0 0 0 0.217 0" in="shadowBlurOuter1" type="matrix" result="shadowMatrixOuter1"></feColorMatrix>
            <feMerge>
                <feMergeNode in="shadowMatrixOuter1"></feMergeNode>
                <feMergeNode in="SourceGraphic"></feMergeNode>
            </feMerge>
        </filter>
    </defs>
    <g id="--stylesheet" stroke="none" stroke-width="1" fill="none" fill-rule="evenodd" sketch:type="MSPage">
        <g id="Desktop" sketch:type="MSArtboardGroup" transform="translate(-463.000000, -237.000000)" filter="url(#filter-1)" fill="#FFFFFF" opacity="0.9" fill-opacity="0.980000019">
            <g id="Review/ic_twitter" sketch:type="MSLayerGroup" transform="translate(463.000000, 237.000000)">
                <path d="M20.078106,0 C17.3593586,0 14.8124856,0.515624508 12.4374883,1.54687352 C10.0624904,2.57812254 7.99217959,3.97655775 6.22655676,5.74218202 C4.46093392,7.50775766 3.06249799,9.57806914 2.03124826,11.9531136 C0.99999924,14.3281109 0.484374732,16.8749839 0.484374732,19.5937313 C0.484374732,22.3124787 0.99999924,24.8593511 2.03124826,27.234349 C3.06249727,29.609347 4.4609332,31.6874698 6.22655676,33.4687181 C7.99218031,35.2499664 10.0624904,36.656215 12.4374883,37.6874641 C14.8124856,38.7187131 17.3593586,39.2343376 20.078106,39.2343376 C22.7968535,39.2343376 25.3437251,38.7187131 27.7187238,37.6874641 C30.0937224,36.656215 32.1718445,35.2499664 33.9530928,33.4687181 C35.7343411,31.6874698 37.1405898,29.609347 38.1718388,27.234349 C39.2030878,24.8593511 39.7187123,22.3124787 39.7187123,19.5937313 C39.7187123,16.8749839 39.2030878,14.3281109 38.1718388,11.9531136 C37.1405898,9.57811491 35.7343411,7.50780629 33.9530928,5.74218202 C32.1718445,3.97655775 30.0937224,2.57812254 27.7187238,1.54687352 C25.343748,0.515624508 22.7968749,0 20.078106,0 L20.078106,0 Z M29.8280967,15.3749853 L29.8280967,15.9843598 C29.8280967,17.546843 29.531223,19.1327795 28.9374726,20.7421677 C28.3437222,22.3515409 27.4765355,23.8046646 26.3359126,25.1015386 C25.1952896,26.398409 23.7812275,27.4609082 22.0937291,28.2890355 C20.4062307,29.1171593 18.4687321,29.5312218 16.2812347,29.5312218 C14.9374864,29.5312218 13.6484252,29.343722 12.4140509,28.9687224 C11.1796773,28.5937227 10.0312409,28.0624728 8.96874164,27.3749739 C9.15624146,27.4062241 9.34374128,27.4296616 9.5312411,27.4452863 C9.71874093,27.4609111 9.92186549,27.4687238 10.1406155,27.4687238 C11.2343535,27.4687238 12.28904,27.2890367 13.304675,26.9296618 C14.3202986,26.5702869 15.2343602,26.0624751 16.0468599,25.4062258 C14.9843614,25.4062258 14.0546743,25.0937258 13.2578001,24.4687267 C12.4609258,23.8437275 11.9062391,23.062478 11.5937391,22.1249789 C11.7499887,22.1562291 11.8984263,22.1796666 12.0390512,22.1952913 C12.1796761,22.2109161 12.328113,22.2187288 12.4843633,22.2187288 C12.7031126,22.2187288 12.9140499,22.2031041 13.1171752,22.1718539 C13.3203005,22.1406036 13.5312378,22.0937287 13.7499871,22.031229 C12.6562491,21.812479 11.7421875,21.2734177 11.0078022,20.414043 C10.2734277,19.5546684 9.90624075,18.5312328 9.90624075,17.3437335 L9.90624075,17.2968585 C10.5312199,17.6404871 11.249969,17.8436123 12.0624887,17.9062329 C11.4374895,17.4687329 10.929677,16.8984214 10.5390526,16.1952971 C10.1484283,15.4921727 9.9531157,14.7343614 9.9531157,13.9218617 C9.9531157,13.046863 10.1718657,12.2499888 10.6093651,11.531239 C11.7968637,12.9999881 13.2343626,14.171862 14.921861,15.0468607 C16.6093594,15.9218593 18.4374826,16.4062344 20.4062307,16.4999843 C20.3749812,16.3437339 20.3515438,16.1718596 20.3359183,15.9843598 C20.3202928,15.7968599 20.3124808,15.6093601 20.3124808,15.4218603 C20.3124808,14.7656109 20.4374802,14.1484245 20.6874805,13.5702996 C20.9374807,12.9921746 21.2734174,12.4843636 21.695292,12.0468635 C22.1171666,11.6093635 22.6171656,11.2656147 23.1952906,11.0156145 C23.7734155,10.7656143 24.3906019,10.6406149 25.0468513,10.6406149 C25.7655997,10.6406149 26.421849,10.7812397 27.0155994,11.0624894 C27.6093498,11.3437392 28.1249743,11.7031134 28.562473,12.1406134 C29.0937215,12.0468635 29.609346,11.8984266 30.1093465,11.6953013 C30.609347,11.4921761 31.0937205,11.2656147 31.5624701,11.0156145 C31.4062212,11.5468645 31.1405955,12.0390515 30.7655959,12.4921756 C30.3905962,12.9452997 29.9530976,13.3281128 29.4530971,13.640612 C29.9530976,13.5781116 30.4296577,13.4843617 30.8827832,13.3593623 C31.3359088,13.2343629 31.7812208,13.0781125 32.2187195,12.8906127 C31.5312192,13.8593613 30.7343449,14.6874865 29.8280967,15.3749853 L29.8280967,15.3749853 Z" id="circletwitterbird" sketch:type="MSShapeGroup"></path>
            </g>
        </g>
    </g>
</svg>