<?xml version="1.0" encoding="UTF-8" standalone="no"?>
<svg width="100px" height="96px" viewBox="0 0 100 96" version="1.1" xmlns="http://www.w3.org/2000/svg" xmlns:xlink="http://www.w3.org/1999/xlink" xmlns:sketch="http://www.bohemiancoding.com/sketch/ns">
    <!-- Generator: Sketch 3.3.2 (12043) - http://www.bohemiancoding.com/sketch -->
    <title>Capture/FX Card/ic_kungfu</title>
    <desc>Created with Sketch.</desc>
    <defs>
        <filter x="-50%" y="-50%" width="200%" height="200%" filterUnits="objectBoundingBox" id="filter-1">
            <feOffset dx="0" dy="2" in="SourceAlpha" result="shadowOffsetOuter1"></feOffset>
            <feGaussianBlur stdDeviation="0" in="shadowOffsetOuter1" result="shadowBlurOuter1"></feGaussianBlur>
            <feColorMatrix values="0 0 0 0 0   0 0 0 0 0   0 0 0 0 0  0 0 0 0.35 0" in="shadowBlurOuter1" type="matrix" result="shadowMatrixOuter1"></feColorMatrix>
            <feMerge>
                <feMergeNode in="shadowMatrixOuter1"></feMergeNode>
                <feMergeNode in="SourceGraphic"></feMergeNode>
            </feMerge>
        </filter>
    </defs>
    <g id="--stylesheet" stroke="none" stroke-width="1" fill="none" fill-rule="evenodd" sketch:type="MSPage">
        <g id="Desktop" sketch:type="MSArtboardGroup" transform="translate(-33.000000, -392.000000)" filter="url(#filter-1)" fill="#FFFFFF" opacity="0.9" fill-opacity="0.980000019">
            <g id="Capture/FX-Card/ic_kungfu" sketch:type="MSLayerGroup" transform="translate(33.000000, 392.000000)">
                <path d="M98.9659223,28.9218092 C97.2791866,26.540763 93.3688505,25.5289796 90.9916759,27.5641611 C89.1887916,29.1076469 87.3884884,30.64468 85.5907662,32.1868753 C69.7610032,24.3662031 53.9338212,16.559727 38.1092203,8.74034541 C31.0615817,5.25201592 27.3925766,17.0269024 34.3382626,20.4597387 C40.0424492,23.278278 45.7492168,26.0942361 51.4508223,28.9114849 C47.4256282,36.6405286 43.4030152,44.3721535 39.3816927,52.1037783 C39.293936,52.2715485 39.2410239,52.447062 39.1623009,52.6174132 C28.6289138,47.7740168 18.0929457,42.934492 7.5595586,38.0936766 C0.475784802,34.8363538 -3.26290944,46.3311931 3.72665494,49.5446376 C16.3326492,55.339162 28.9373529,61.1272337 41.5394755,66.9269202 C42.2531441,70.3958916 42.9642316,73.8713157 43.6740286,77.3467398 C39.1468144,75.3076867 34.6221814,73.2570187 30.1220686,71.1573102 C23.1131461,67.8883725 16.9792097,78.2927056 24.0294295,81.5835824 C32.6941147,85.6268441 41.4452661,89.484268 50.1564108,93.4242865 C55.5650637,95.8646975 60.4123318,90.3024703 59.174704,86.1378979 C59.174704,86.109506 59.1798661,86.0836952 59.174704,86.0565939 C57.6712249,78.6863202 56.156131,71.3224993 54.652652,63.9560972 C54.9791586,63.5586109 55.300503,63.1495098 55.5508678,62.6758816 C59.9283793,54.2615611 64.311053,45.8420785 68.6885645,37.4251769 C73.5306704,39.8152569 78.3740668,42.207918 83.2148822,44.597998 C84.856449,45.4084571 86.2966916,45.3723219 87.4865694,44.8277141 C88.2208866,44.6728493 88.9255215,44.3592481 89.5294942,43.8430321 C92.22027,41.5407088 94.9058836,39.2332234 97.6031121,36.9321907 C99.9725434,34.9021713 100.878502,31.6383958 98.9659223,28.9218092 Z M69.1208954,19.8944822 C74.3785551,21.2250289 79.7239716,18.0451385 81.0506467,12.7861882 C82.3902271,7.5285284 79.2013029,2.18698354 73.9500959,0.849984149 C68.6937266,-0.483143621 63.3483102,2.70190898 62.0087297,7.95569712 C60.6820546,13.215938 63.8645261,18.5574828 69.1208954,19.8944822 Z" id="Shape" sketch:type="MSShapeGroup"></path>
            </g>
        </g>
    </g>
</svg>