<?xml version="1.0" encoding="UTF-8" standalone="no"?>
<svg width="100px" height="94px" viewBox="0 0 100 94" version="1.1" xmlns="http://www.w3.org/2000/svg" xmlns:xlink="http://www.w3.org/1999/xlink" xmlns:sketch="http://www.bohemiancoding.com/sketch/ns">
    <!-- Generator: Sketch 3.3.2 (12043) - http://www.bohemiancoding.com/sketch -->
    <title>Capture/FX Card/ic_taxi</title>
    <desc>Created with Sketch.</desc>
    <defs>
        <filter x="-50%" y="-50%" width="200%" height="200%" filterUnits="objectBoundingBox" id="filter-1">
            <feOffset dx="0" dy="2" in="SourceAlpha" result="shadowOffsetOuter1"></feOffset>
            <feGaussianBlur stdDeviation="0" in="shadowOffsetOuter1" result="shadowBlurOuter1"></feGaussianBlur>
            <feColorMatrix values="0 0 0 0 0   0 0 0 0 0   0 0 0 0 0  0 0 0 0.35 0" in="shadowBlurOuter1" type="matrix" result="shadowMatrixOuter1"></feColorMatrix>
            <feMerge>
                <feMergeNode in="shadowMatrixOuter1"></feMergeNode>
                <feMergeNode in="SourceGraphic"></feMergeNode>
            </feMerge>
        </filter>
    </defs>
    <g id="--stylesheet" stroke="none" stroke-width="1" fill="none" fill-rule="evenodd" sketch:type="MSPage">
        <g id="Desktop" sketch:type="MSArtboardGroup" transform="translate(-169.000000, -395.000000)" filter="url(#filter-1)" fill="#FFFFFF" opacity="0.9" fill-opacity="0.980000019">
            <g id="Capture/FX-Card/ic_taxi" sketch:type="MSLayerGroup" transform="translate(169.000000, 394.000000)">
                <path d="M90.97,38.167 L82.745,17.14 C81.227,13.171 77.876,9.762 71.552,9.781 L59.987,9.781 L59.987,4.279 C59.963,2.092 58.774,0.981 56.833,1 L50.03,1 L43.352,1 C41.39,0.981 40.201,2.092 40.198,4.279 L40.198,9.781 L28.448,9.781 C22.154,9.762 18.804,13.171 17.255,17.14 L9.029,38.167 C5.79,38.557 0.029,42.339 0,49.486 L0,76.2 L8.038,76.2 L8.038,84.735 C8.017,95.204 23.023,95.081 23.006,84.735 L23.006,76.2 L50.03,76.2 L76.993,76.2 L76.993,84.735 C77.011,95.081 92.018,95.204 92.022,84.735 L92.022,76.2 L100,76.2 L100,49.486 C100.006,42.339 94.239,38.557 90.97,38.167 L90.97,38.167 Z M15.77,59.875 C11.931,59.874 8.826,56.709 8.843,52.826 C8.825,48.893 11.93,45.726 15.77,45.713 C19.586,45.727 22.689,48.894 22.696,52.826 C22.689,56.709 19.586,59.874 15.77,59.875 L15.77,59.875 Z M50.029,37.674 L49.967,37.674 L17.563,37.674 L23.746,21.408 C24.504,19.098 25.664,17.424 28.385,17.388 L49.968,17.388 L50.03,17.388 L71.675,17.388 C74.365,17.424 75.525,19.098 76.314,21.408 L82.499,37.674 L50.029,37.674 L50.029,37.674 Z M84.291,59.875 C80.443,59.874 77.338,56.709 77.363,52.826 C77.338,48.893 80.443,45.726 84.291,45.713 C88.1,45.727 91.201,48.894 91.22,52.826 C91.201,56.709 88.099,59.874 84.291,59.875 L84.291,59.875 Z" id="Shape" sketch:type="MSShapeGroup"></path>
            </g>
        </g>
    </g>
</svg>