<?xml version="1.0" encoding="UTF-8" standalone="no"?>
<svg width="23px" height="23px" viewBox="0 0 23 23" version="1.1" xmlns="http://www.w3.org/2000/svg" xmlns:xlink="http://www.w3.org/1999/xlink" xmlns:sketch="http://www.bohemiancoding.com/sketch/ns">
    <!-- Generator: Sketch 3.3.2 (12043) - http://www.bohemiancoding.com/sketch -->
    <title>FX Card/ic_fx-settings</title>
    <desc>Created with Sketch.</desc>
    <defs>
        <filter x="-50%" y="-50%" width="200%" height="200%" filterUnits="objectBoundingBox" id="filter-1">
            <feOffset dx="-0.8" dy="1" in="SourceAlpha" result="shadowOffsetOuter1"></feOffset>
            <feGaussianBlur stdDeviation="0" in="shadowOffsetOuter1" result="shadowBlurOuter1"></feGaussianBlur>
            <feColorMatrix values="0 0 0 0 0   0 0 0 0 0   0 0 0 0 0  0 0 0 0.133 0" in="shadowBlurOuter1" type="matrix" result="shadowMatrixOuter1"></feColorMatrix>
            <feMerge>
                <feMergeNode in="shadowMatrixOuter1"></feMergeNode>
                <feMergeNode in="SourceGraphic"></feMergeNode>
            </feMerge>
        </filter>
    </defs>
    <g id="--stylesheet" stroke="none" stroke-width="1" fill="none" fill-rule="evenodd" sketch:type="MSPage">
        <g id="Desktop" sketch:type="MSArtboardGroup" transform="translate(-86.000000, -86.000000)" filter="url(#filter-1)" fill="#D7D7D7">
            <g id="FX-Card/ic_fx-settings" sketch:type="MSLayerGroup" transform="translate(87.000000, 86.000000)">
                <path d="M10,9.09090909 L2.72727273,9.09090909 L2.72727273,10.9090909 L0,10.9090909 L0,11.8181818 L2.72727273,11.8181818 L2.72727273,13.6363636 L10,13.6363636 L10,11.8181818 L21.8181818,11.8181818 L21.8181818,10.9090909 L10,10.9090909 L10,9.09090909 Z M19.0909091,2.72727273 L19.0909091,0.909090909 L11.8181818,0.909090909 L11.8181818,2.72727273 L0,2.72727273 L0,3.63636364 L11.8181818,3.63636364 L11.8181818,5.45454545 L19.0909091,5.45454545 L19.0909091,3.63636364 L21.8181818,3.63636364 L21.8181818,2.72727273 L19.0909091,2.72727273 Z M14.5454545,17.2727273 L7.27272727,17.2727273 L7.27272727,19.0909091 L0,19.0909091 L0,20 L7.27272727,20 L7.27272727,21.8181818 L14.5454545,21.8181818 L14.5454545,20 L21.8181818,20 L21.8181818,19.0909091 L14.5454545,19.0909091 L14.5454545,17.2727273 Z" id="Fill-3203" sketch:type="MSShapeGroup"></path>
            </g>
        </g>
    </g>
</svg>