<?xml version="1.0" encoding="UTF-8" standalone="no"?>
<svg width="136px" height="21px" viewBox="0 0 136 21" version="1.1" xmlns="http://www.w3.org/2000/svg" xmlns:xlink="http://www.w3.org/1999/xlink" xmlns:sketch="http://www.bohemiancoding.com/sketch/ns">
    <!-- Generator: Sketch 3.3.2 (12043) - http://www.bohemiancoding.com/sketch -->
    <title>Preview/logo_personify</title>
    <desc>Created with Sketch.</desc>
    <defs></defs>
    <g id="--stylesheet" stroke="none" stroke-width="1" fill="none" fill-rule="evenodd" sketch:type="MSPage">
        <g id="Desktop" sketch:type="MSArtboardGroup" transform="translate(-101.000000, -244.000000)" fill="#2A3337">
            <g id="Preview/logo_personify" sketch:type="MSLayerGroup" transform="translate(101.000000, 244.000000)">
                <path d="M129.607852,11.4394737 C129.523509,12.0473684 129.01745,12.4894737 128.51139,12.4894737 C127.977217,12.4894737 127.611729,12.0197368 127.696072,11.4394737 L128.567619,5.36052632 L123.338339,5.36052632 L122.354335,12.1578947 C122.129419,13.8710526 122.916623,14.9486842 124.744059,15.1144737 C122.972852,15.7223684 121.988847,16.9105263 121.988847,18.2921053 C121.988847,19.7565789 123.225881,21 127.077555,21 C131.63209,21 133.740671,19.1486842 134.387302,14.8105263 L135.736794,5.33289474 L130.479399,5.33289474 L129.607852,11.4394737 Z M120.330097,5.36052632 C120.611241,4.2 121.145415,4.11710526 121.792046,4.11710526 C121.932618,4.11710526 122.129419,4.14473684 122.298106,4.17236842 L123.057195,1.16052632 C122.382449,0.856578947 121.398445,0.635526316 120.133296,0.635526316 C117.884143,0.635526316 115.803677,1.35394737 115.157046,5.36052632 L114.004355,5.36052632 L113.470181,9.06315789 L114.622872,9.06315789 L113.582639,16.275 C113.413952,17.4355263 112.739206,17.5184211 112.092575,17.5184211 C111.952003,17.5184211 111.755202,17.4907895 111.61463,17.4631579 L111.192914,20.5578947 C111.839545,20.7789474 112.711092,20.9723684 113.779439,20.9723684 C115.916135,20.9723684 118.277745,20.0052632 118.811919,16.2473684 L119.852152,9.03552632 L121.567131,9.03552632 L122.101305,5.33289474 L120.330097,5.33289474 L120.330097,5.36052632 Z M111.923888,13.3736842 C111.164799,13.5394737 110.602511,13.4289474 110.714969,12.7381579 L111.783316,5.36052632 L106.525922,5.36052632 L105.345116,13.7052632 C105.120201,15.4184211 106.047977,16.8552632 108.465816,16.8552632 C109.534164,16.8552632 110.771198,16.6894737 111.502172,16.4407895 L111.923888,13.3736842 Z M112.486177,0.911842105 L107.144439,0.911842105 L106.666494,4.25526316 L112.036346,4.25526316 L112.486177,0.911842105 Z M103.51768,12.6276316 L104.051854,8.95263158 C104.389227,6.71447368 102.983506,5.05657895 100.678124,5.05657895 C99.2442895,5.05657895 98.0353698,5.58157895 97.0794799,6.43815789 L97.220052,5.33289474 L92.1313437,5.33289474 L90.5288224,16.5789474 L95.786217,16.5789474 L96.7139926,10.1407895 C96.7983358,9.56052632 97.2762808,9.09078947 97.7823402,9.09078947 C98.3165139,9.09078947 98.7101157,9.56052632 98.6257725,10.1407895 L98.1197131,13.6776316 C97.8666834,15.3907895 98.8225733,16.8276316 101.240413,16.8276316 C102.30876,16.8276316 103.545794,16.6618421 104.276769,16.4131579 L104.726599,13.3184211 C103.939396,13.5671053 103.405222,13.4289474 103.51768,12.6276316 Z M84.6247962,5.08421053 C80.7450077,5.08421053 77.1182488,7.54342105 77.1182488,11.7434211 C77.1182488,15.0039474 79.6766601,16.8828947 82.9379316,16.8828947 C86.7896058,16.8828947 90.3882503,14.3960526 90.3882503,10.2513158 C90.3882503,6.96315789 87.829839,5.08421053 84.6247962,5.08421053 Z M84.0343936,9.00789474 C82.9941605,9.00789474 82.206957,10.1131579 82.206957,11.3013158 C82.206957,12.2131579 82.6567875,12.9592105 83.4721054,12.9592105 C84.5123386,12.9592105 85.2995421,11.8539474 85.2995421,10.6657895 C85.2995421,9.75394737 84.8497115,9.00789474 84.0343936,9.00789474 Z M73.1822314,8.37236842 C74.2786934,8.37236842 75.4313842,8.70394737 76.1342444,9.06315789 L77.0339055,5.99605263 C75.8531003,5.44342105 74.531723,5.08421053 72.8729728,5.08421053 C69.4430148,5.08421053 66.9970611,6.63157895 66.9970611,9.45 C66.9970611,13.1526316 71.1579938,12.3236842 71.1579938,13.0973684 C71.1579938,13.3184211 70.7925065,13.5118421 70.0896463,13.5118421 C68.9650699,13.5118421 67.5312349,13.0421053 66.6878026,12.3789474 L65.7600271,15.6118421 C67.05329,16.3855263 68.6558113,16.9105263 70.62382,16.9105263 C74.0537781,16.9105263 76.4153885,15.3355263 76.4153885,12.5447368 C76.4153885,8.78684211 72.1701126,9.64342105 72.1701126,8.78684211 C72.1419982,8.4 72.9010873,8.37236842 73.1822314,8.37236842 Z M66.4910018,5.16710526 C64.1575057,4.61447368 63.1172726,6.41052632 62.5830988,7.32236842 L62.8642429,5.33289474 L57.9723355,5.33289474 L56.3698141,16.5789474 L61.6272088,16.5789474 L62.2457258,12.3789474 C62.5830988,10.1684211 63.904476,9.31184211 65.9005992,9.58815789 L66.4910018,5.16710526 Z M51.421678,5.08421053 C47.4013173,5.08421053 44.3930755,8.06842105 44.3930755,11.8263158 C44.3930755,15.3631579 46.7546859,16.9105263 50.2971016,16.9105263 C51.8715085,16.9105263 53.4740299,16.5789474 54.6829495,16.1921053 L54.5142631,12.9315789 C53.6427164,13.2078947 52.5743688,13.3736842 51.421678,13.3736842 C50.465788,13.3736842 49.6504701,13.1802632 49.3130972,12.6 C52.1807671,12.9039474 56.0605556,12.4065789 56.0605556,8.89736842 C56.0605556,6.52105263 54.1768902,5.08421053 51.421678,5.08421053 Z M37.364473,1.96184211 C35.0028625,1.96184211 33.2878835,2.15526316 32.3319936,2.29342105 C32.3319936,2.29342105 32.3038791,2.32105263 30.2796416,16.5789474 L35.5370363,16.5789474 L36.0430957,12.8763158 C39.8947699,13.2078947 44.7304484,11.5776316 44.7304484,6.85263158 C44.7304484,3.06710526 40.7663166,1.96184211 37.364473,1.96184211 Z M19.3993649,8.09605263 L19.3993649,17.7118421 L26.8496836,13.5394737 L26.8496836,7.59868421 C25.8094504,8.62105263 24.4037299,9.25657895 22.829323,9.25657895 C21.5360601,9.25657895 20.3552549,8.81447368 19.3993649,8.09605263 Z M22.829323,7.40526316 C24.9097893,7.40526316 26.5966539,5.74736842 26.5966539,3.70263158 C26.5966539,1.65789474 24.9097893,0 22.829323,0 C20.7488566,0 19.061992,1.65789474 19.061992,3.70263158 C19.061992,5.74736842 20.7488566,7.40526316 22.829323,7.40526316 Z M9.95292316,8.09605263 L9.95292316,17.7118421 L17.4032418,13.5394737 L17.4032418,7.59868421 C16.3911231,8.62105263 14.9572881,9.25657895 13.3828812,9.25657895 C12.0896183,9.25657895 10.9088131,8.81447368 9.95292316,8.09605263 Z M13.3828812,7.40526316 C15.4633475,7.40526316 17.1502121,5.74736842 17.1502121,3.70263158 C17.1502121,1.65789474 15.4633475,0 13.3828812,0 C11.3024148,0 9.61555023,1.65789474 9.61555023,3.70263158 C9.64366465,5.74736842 11.3305292,7.40526316 13.3828812,7.40526316 Z M0.534595789,8.09605263 L0.534595789,17.7118421 L7.98491445,13.5394737 L7.98491445,7.59868421 C6.94468128,8.62105263 5.53896078,9.25657895 3.96455381,9.25657895 C2.67129095,9.25657895 1.49048573,8.81447368 0.534595789,8.09605263 Z M3.96455381,7.40526316 C6.04502016,7.40526316 7.73188476,5.74736842 7.73188476,3.70263158 C7.73188476,1.65789474 6.04502016,0 3.96455381,0 C1.88408747,0 0.197222868,1.65789474 0.197222868,3.70263158 C0.197222868,5.74736842 1.88408747,7.40526316 3.96455381,7.40526316 Z M127.696072,17.9052632 C128.455162,17.9052632 128.76442,17.3802632 128.848763,16.6618421 L129.073679,15.1421053 C129.073679,15.1421053 126.936983,15.4460526 126.936983,17.1039474 C126.936983,17.5460526 127.133784,17.9052632 127.696072,17.9052632 Z M36.5772695,9.06315789 C37.4488162,9.11842105 39.4730537,9.00789474 39.4730537,7.35 C39.4449393,6.07894737 37.7580747,5.91315789 36.9989856,6.02368421 L36.5772695,9.06315789 Z M49.4536693,9.80921053 C50.1846439,9.89210526 51.9839662,9.91973684 51.9839662,8.81447368 C51.9839662,8.42763158 51.6465933,8.20657895 51.2529915,8.20657895 C50.2127583,8.20657895 49.6785846,9.00789474 49.4536693,9.80921053 Z" id="Shape" sketch:type="MSShapeGroup"></path>
            </g>
        </g>
    </g>
</svg>