<?xml version="1.0" encoding="UTF-8" standalone="no"?>
<svg width="28px" height="23px" viewBox="0 0 28 23" version="1.1" xmlns="http://www.w3.org/2000/svg" xmlns:xlink="http://www.w3.org/1999/xlink" xmlns:sketch="http://www.bohemiancoding.com/sketch/ns">
    <!-- Generator: Sketch 3.3.2 (12043) - http://www.bohemiancoding.com/sketch -->
    <title>FX/ic_preview</title>
    <desc>Created with Sketch.</desc>
    <defs>
        <filter x="-50%" y="-50%" width="200%" height="200%" filterUnits="objectBoundingBox" id="filter-1">
            <feOffset dx="-0.8" dy="1" in="SourceAlpha" result="shadowOffsetOuter1"></feOffset>
            <feGaussianBlur stdDeviation="0" in="shadowOffsetOuter1" result="shadowBlurOuter1"></feGaussianBlur>
            <feColorMatrix values="0 0 0 0 0   0 0 0 0 0   0 0 0 0 0  0 0 0 0.133 0" in="shadowBlurOuter1" type="matrix" result="shadowMatrixOuter1"></feColorMatrix>
            <feMerge>
                <feMergeNode in="shadowMatrixOuter1"></feMergeNode>
                <feMergeNode in="SourceGraphic"></feMergeNode>
            </feMerge>
        </filter>
    </defs>
    <g id="--stylesheet" stroke="none" stroke-width="1" fill="none" fill-rule="evenodd" sketch:type="MSPage">
        <g id="Desktop" sketch:type="MSArtboardGroup" transform="translate(-35.000000, -86.000000)" filter="url(#filter-1)" fill="#D7D7D7">
            <g id="FX/ic_preview" sketch:type="MSLayerGroup" transform="translate(36.500000, 85.500000)">
                <path d="M15.8930427,4.25705215 C14.9607324,4.08867913 13.9927913,4 13,4 C6.88207076,4 1.70781954,7.36755247 1.07286402e-12,12 C1.14899197,15.116632 3.86701909,17.6607257 7.38583611,18.9919663 L5.88180505,21.5970245 L7.03473573,22.2626693 L19.0347357,1.47805965 L17.881805,0.812414814 L15.8930429,4.25705191 Z M8.7388683,16.6484458 C7.53767769,15.4682869 6.79209408,13.8216556 6.79209408,12 C6.79209408,8.41014913 9.68754782,5.5 13.259271,5.5 C13.8741982,5.5 14.4690801,5.58625952 15.0325919,5.74739626 L13.9196744,7.67502642 C13.7043208,7.64208306 13.4837808,7.625 13.259271,7.625 C10.8552266,7.625 8.90636346,9.58375422 8.90636346,12 C8.90636346,13.028891 9.25974014,13.9748276 9.85116333,14.7218943 L8.7388683,16.6484458 Z M18.3838302,4.92304118 C22.0142098,6.22906598 24.8260603,8.81569755 26,12 L26,12 C24.2921805,16.6324475 19.1179292,20 13,20 C11.9174747,20 10.8644948,19.8945658 9.85503617,19.6953458 L10.8210318,18.0221922 C11.5734921,18.3302574 12.3966589,18.5 13.259271,18.5 C16.8309942,18.5 19.7264479,15.5898509 19.7264479,12 C19.7264479,9.92407687 18.7582005,8.07544781 17.2508446,6.8854298 L18.3838302,4.92304118 L18.3838302,4.92304118 Z M16.1740062,8.75056858 C17.0571064,9.55127941 17.6121785,10.7104887 17.6121785,12 C17.6121785,14.4162458 15.6633155,16.375 13.259271,16.375 C12.7838663,16.375 12.3262619,16.2984012 11.8980088,16.1568133 L16.1740062,8.75056858 L16.1740062,8.75056858 Z" id="ic_preview" sketch:type="MSShapeGroup"></path>
            </g>
        </g>
    </g>
</svg>